<svg width="16" height="16" viewBox="0 0 16 16" fill="none" xmlns="http://www.w3.org/2000/svg">
<g clip-path="url(#clip0_2001_6017)">
<path d="M13.3332 11.7382C14.329 11.3481 15.3332 10.4593 15.3332 8.66666C15.3332 5.99999 13.1109 5.33333 11.9998 5.33333C11.9998 3.99999 11.9998 1.33333 7.99984 1.33333C3.99984 1.33333 3.99984 3.99999 3.99984 5.33333C2.88873 5.33333 0.666504 5.99999 0.666504 8.66666C0.666504 10.4593 1.67069 11.3481 2.6665 11.7382" stroke="#1C2620" stroke-width="1.5" stroke-linecap="round" stroke-linejoin="round"/>
<path d="M5.053 12.9916L5.99581 13.9344C7.16738 15.106 9.06687 15.106 10.2384 13.9344" stroke="#1C2620" stroke-width="1.5" stroke-linecap="round" stroke-linejoin="round"/>
<path d="M5.28885 14.6415L5.05315 12.9916L6.70306 13.2273L5.28885 14.6415Z" stroke="#1C2620" stroke-width="1.5" stroke-linecap="round" stroke-linejoin="round"/>
<path d="M10.865 11.2678L9.92216 10.325C8.75059 9.15338 6.8511 9.15338 5.67952 10.325" stroke="#1C2620" stroke-width="1.5" stroke-linecap="round" stroke-linejoin="round"/>
<path d="M10.6301 9.61783L10.8658 11.2677L9.21588 11.032L10.6301 9.61783Z" stroke="#1C2620" stroke-width="1.5" stroke-linecap="round" stroke-linejoin="round"/>
</g>
<defs>
<clipPath id="clip0_2001_6017">
<rect width="16" height="16" fill="white"/>
</clipPath>
</defs>
</svg>
